name Run_50002_GRF.mot
datacolumns 19
datarows 28
range 1.933 1.96
endheader
time	     ground_force_vx	     ground_force_vy	     ground_force_vz	     ground_force_px	     ground_force_py	     ground_force_pz	   l_ground_force_vx	   l_ground_force_vy	   l_ground_force_vz	   l_ground_force_px	   l_ground_force_py	   l_ground_force_pz	     ground_torque_x	     ground_torque_y	     ground_torque_z	   l_ground_torque_x	   l_ground_torque_y	   l_ground_torque_z	
1.933	        235.86221300	       1064.10583500	         80.59494800	          0.75032300	          0.00000000	         -0.36822100	          0.00000000	          0.00000000	          0.00000000	          0.00000000	          0.00000000	          0.00000000	          0.00000000	         -1.00071600	          0.00000000	          0.00000000	          0.00000000	          0.00000000	
1.934	        238.53076200	       1033.16626000	         78.83186300	          0.74569400	          0.00000000	         -0.36842700	          0.00000000	          0.00000000	          0.00000000	          0.00000000	          0.00000000	          0.00000000	          0.00000000	         -0.82629000	          0.00000000	          0.00000000	          0.00000000	          0.00000000	
1.935	        240.78509500	       1002.29882800	         77.03510300	          0.74111700	          0.00000000	         -0.36861900	          0.00000000	          0.00000000	          0.00000000	          0.00000000	          0.00000000	          0.00000000	          0.00000000	         -0.64928800	          0.00000000	          0.00000000	          0.00000000	          0.00000000	
1.936	        242.59056100	        971.55731200	         75.21035800	          0.73660800	          0.00000000	         -0.36879600	          0.00000000	          0.00000000	          0.00000000	          0.00000000	          0.00000000	          0.00000000	          0.00000000	         -0.47007100	          0.00000000	          0.00000000	          0.00000000	          0.00000000	
1.937	        243.91732800	        940.99237100	         73.36313600	          0.73218000	          0.00000000	         -0.36895700	          0.00000000	          0.00000000	          0.00000000	          0.00000000	          0.00000000	          0.00000000	          0.00000000	         -0.28901000	          0.00000000	          0.00000000	          0.00000000	          0.00000000	
1.938	        244.74148600	        910.65100100	         71.49874900	          0.72784700	          0.00000000	         -0.36910000	          0.00000000	          0.00000000	          0.00000000	          0.00000000	          0.00000000	          0.00000000	          0.00000000	         -0.10648300	          0.00000000	          0.00000000	          0.00000000	          0.00000000	
1.939	        245.04589800	        880.57684300	         69.62226100	          0.72362300	          0.00000000	         -0.36922700	          0.00000000	          0.00000000	          0.00000000	          0.00000000	          0.00000000	          0.00000000	         -0.00000000	          0.07712400	         -0.00000000	          0.00000000	          0.00000000	          0.00000000	
1.94	        244.82070900	        850.81018100	         67.73845700	          0.71951700	          0.00000000	         -0.36933700	          0.00000000	          0.00000000	          0.00000000	          0.00000000	          0.00000000	          0.00000000	         -0.00000000	          0.26141700	         -0.00000000	          0.00000000	          0.00000000	          0.00000000	
1.941	        244.06381200	        821.38824500	         65.85179900	          0.71554100	          0.00000000	         -0.36943000	          0.00000000	          0.00000000	          0.00000000	          0.00000000	          0.00000000	          0.00000000	         -0.00000000	          0.44600000	         -0.00000000	          0.00000000	          0.00000000	          0.00000000	
1.942	        242.78086900	        792.34558100	         63.96643800	          0.71170200	          0.00000000	         -0.36950600	          0.00000000	          0.00000000	          0.00000000	          0.00000000	          0.00000000	          0.00000000	         -0.00000000	          0.63047300	         -0.00000000	          0.00000000	          0.00000000	          0.00000000	
1.943	        240.98504600	        763.71429400	         62.08616600	          0.70800600	          0.00000000	         -0.36956700	          0.00000000	          0.00000000	          0.00000000	          0.00000000	          0.00000000	          0.00000000	         -0.00000000	          0.81443400	         -0.00000000	          0.00000000	          0.00000000	          0.00000000	
1.944	        238.69654800	        735.52441400	         60.21442800	          0.70445900	          0.00000000	         -0.36961300	          0.00000000	          0.00000000	          0.00000000	          0.00000000	          0.00000000	          0.00000000	         -0.00000000	          0.99748100	         -0.00000000	          0.00000000	          0.00000000	          0.00000000	
1.945	        235.94184900	        707.80419900	         58.35430500	          0.70106400	          0.00000000	         -0.36964200	          0.00000000	          0.00000000	          0.00000000	          0.00000000	          0.00000000	          0.00000000	         -0.00000000	          1.17921400	         -0.00000000	          0.00000000	          0.00000000	          0.00000000	
1.946	        232.75265500	        680.58001700	         56.50854100	          0.69782500	          0.00000000	         -0.36965700	          0.00000000	          0.00000000	          0.00000000	          0.00000000	          0.00000000	          0.00000000	         -0.00000000	          1.35923600	         -0.00000000	          0.00000000	          0.00000000	          0.00000000	
1.947	        229.16485600	        653.87664800	         54.67953900	          0.69474100	          0.00000000	         -0.36965500	          0.00000000	          0.00000000	          0.00000000	          0.00000000	          0.00000000	          0.00000000	         -0.00000000	          1.53715200	         -0.00000000	          0.00000000	          0.00000000	          0.00000000	
1.948	        225.21725500	        627.71667500	         52.86938500	          0.69181500	          0.00000000	         -0.36963600	          0.00000000	          0.00000000	          0.00000000	          0.00000000	          0.00000000	          0.00000000	         -0.00000000	          1.71257600	         -0.00000000	          0.00000000	          0.00000000	          0.00000000	
1.949	        220.95036300	        602.12078900	         51.07986500	          0.68904400	          0.00000000	         -0.36959800	          0.00000000	          0.00000000	          0.00000000	          0.00000000	          0.00000000	          0.00000000	         -0.00000000	          1.88512700	         -0.00000000	          0.00000000	          0.00000000	          0.00000000	
1.95	        216.40519700	        577.10705600	         49.31249600	          0.68642800	          0.00000000	         -0.36954100	          0.00000000	          0.00000000	          0.00000000	          0.00000000	          0.00000000	          0.00000000	         -0.00000000	          2.05443200	         -0.00000000	          0.00000000	          0.00000000	          0.00000000	
1.951	        211.62214700	        552.69091800	         47.56856200	          0.68396400	          0.00000000	         -0.36946200	          0.00000000	          0.00000000	          0.00000000	          0.00000000	          0.00000000	          0.00000000	         -0.00000000	          2.22012900	         -0.00000000	          0.00000000	          0.00000000	          0.00000000	
1.952	        206.64006000	        528.88464400	         45.84912100	          0.68164800	          0.00000000	         -0.36936000	          0.00000000	          0.00000000	          0.00000000	          0.00000000	          0.00000000	          0.00000000	         -0.00000000	          2.38186700	         -0.00000000	          0.00000000	          0.00000000	          0.00000000	
1.953	        201.49545300	        505.69744900	         44.15507900	          0.67947300	          0.00000000	         -0.36923200	          0.00000000	          0.00000000	          0.00000000	          0.00000000	          0.00000000	          0.00000000	         -0.00000000	          2.53930500	         -0.00000000	          0.00000000	          0.00000000	          0.00000000	
1.954	        196.22183200	        483.13519300	         42.48718600	          0.67743500	          0.00000000	         -0.36907800	          0.00000000	          0.00000000	          0.00000000	          0.00000000	          0.00000000	          0.00000000	         -0.00000000	          2.69211700	         -0.00000000	          0.00000000	          0.00000000	          0.00000000	
1.955	        190.84936500	        461.20043900	         40.84608800	          0.67552300	          0.00000000	         -0.36889500	          0.00000000	          0.00000000	          0.00000000	          0.00000000	          0.00000000	          0.00000000	         -0.00000000	          2.83999000	         -0.00000000	          0.00000000	          0.00000000	          0.00000000	
1.956	        185.40464800	        439.89267000	         39.23236100	          0.67372800	          0.00000000	         -0.36868300	          0.00000000	          0.00000000	          0.00000000	          0.00000000	          0.00000000	          0.00000000	         -0.00000000	          2.98262700	         -0.00000000	          0.00000000	          0.00000000	          0.00000000	
1.957	        179.91059900	        419.20846600	         37.64653400	          0.67203600	          0.00000000	         -0.36844200	          0.00000000	          0.00000000	          0.00000000	          0.00000000	          0.00000000	          0.00000000	         -0.00000000	          3.11974600	         -0.00000000	          0.00000000	          0.00000000	          0.00000000	
1.958	        174.38662700	        399.14205900	         36.08911500	          0.67043400	          0.00000000	         -0.36817200	          0.00000000	          0.00000000	          0.00000000	          0.00000000	          0.00000000	          0.00000000	         -0.00000000	          3.25108300	         -0.00000000	          0.00000000	          0.00000000	          0.00000000	
1.959	        168.84878500	        379.68551600	         34.56061600	          0.66890400	          0.00000000	         -0.36787400	          0.00000000	          0.00000000	          0.00000000	          0.00000000	          0.00000000	          0.00000000	         -0.00000000	          3.37639100	         -0.00000000	          0.00000000	          0.00000000	          0.00000000	
1.96	        163.31016500	        360.82943700	         33.06156900	          0.66742600	          0.00000000	         -0.36754900	          0.00000000	          0.00000000	          0.00000000	          0.00000000	          0.00000000	          0.00000000	         -0.00000000	          3.49544100	         -0.00000000	          0.00000000	          0.00000000	          0.00000000	
